<svg width="60" height="60" viewBox="0 0 60 60" fill="none" xmlns="http://www.w3.org/2000/svg">
<path d="M48.75 8.57143H60V60H0V8.57143H11.25V5.14286C11.25 3.73714 11.8125 2.53714 12.9 1.50857C13.9875 0.514286 15.3375 0 16.875 0C18.4125 0 19.7625 0.514286 20.85 1.50857C21.9375 2.53714 22.5 3.73714 22.5 5.14286V8.57143H37.5V5.14286C37.5 3.73714 38.0625 2.53714 39.15 1.50857C40.2375 0.514286 41.5875 0 43.125 0C44.6625 0 46.0125 0.514286 47.1 1.50857C48.1875 2.53714 48.75 3.73714 48.75 5.14286V8.57143ZM15 5.14286V13.7143C14.9954 13.9406 15.0408 14.1654 15.1334 14.3752C15.226 14.5851 15.3639 14.7758 15.539 14.9358C15.714 15.0958 15.9225 15.2219 16.1521 15.3066C16.3816 15.3913 16.6275 15.4328 16.875 15.4286C17.1225 15.4328 17.3684 15.3913 17.5979 15.3066C17.8275 15.2219 18.036 15.0958 18.211 14.9358C18.3861 14.7758 18.524 14.5851 18.6166 14.3752C18.7092 14.1654 18.7546 13.9406 18.75 13.7143V5.14286C18.75 4.66286 18.5625 4.25143 18.1875 3.94286C17.85 3.6 17.4 3.42857 16.875 3.42857C16.35 3.42857 15.9 3.6 15.5625 3.94286C15.1875 4.25143 15 4.66286 15 5.14286ZM41.25 5.14286V13.7143C41.25 14.1943 41.4375 14.6057 41.775 14.9486C42.15 15.2571 42.6 15.4286 43.125 15.4286C43.65 15.4286 44.1 15.2571 44.475 14.9486C44.8125 14.6057 45 14.1943 45 13.7143V5.14286C45.0046 4.91658 44.9592 4.69179 44.8666 4.48191C44.774 4.27203 44.6361 4.08138 44.461 3.92135C44.286 3.76132 44.0775 3.6352 43.8479 3.55053C43.6184 3.46586 43.3725 3.42438 43.125 3.42857C42.8775 3.42438 42.6316 3.46586 42.4021 3.55053C42.1725 3.6352 41.964 3.76132 41.789 3.92135C41.6139 4.08138 41.476 4.27203 41.3834 4.48191C41.2908 4.69179 41.2454 4.91658 41.25 5.14286ZM56.25 56.5714V22.2857H3.75V56.5714H56.25ZM18.75 25.7143V32.5714H11.25V25.7143H18.75ZM26.25 25.7143H33.75V32.5714H26.25V25.7143ZM41.25 32.5714V25.7143H48.75V32.5714H41.25ZM18.75 36V42.8571H11.25V36H18.75ZM26.25 36H33.75V42.8571H26.25V36ZM41.25 42.8571V36H48.75V42.8571H41.25ZM18.75 46.2857V53.1429H11.25V46.2857H18.75ZM33.75 53.1429H26.25V46.2857H33.75V53.1429ZM48.75 53.1429H41.25V46.2857H48.75V53.1429Z" fill="black"/>
</svg>
