<svg width="60" height="60" viewBox="0 0 60 60" fill="none" xmlns="http://www.w3.org/2000/svg">
<path d="M54.375 60H5.625C2.51836 60 0 57.1219 0 53.5714V6.42857C0 2.87812 2.51836 0 5.625 0H54.375C57.4816 0 60 2.87812 60 6.42857V53.5714C60 57.1219 57.4816 60 54.375 60ZM15 11.7857C12.4112 11.7857 10.3125 14.1842 10.3125 17.1429C10.3125 20.1015 12.4112 22.5 15 22.5C17.5888 22.5 19.6875 20.1015 19.6875 17.1429C19.6875 14.1842 17.5888 11.7857 15 11.7857ZM15 24.6429C12.4112 24.6429 10.3125 27.0414 10.3125 30C10.3125 32.9586 12.4112 35.3571 15 35.3571C17.5888 35.3571 19.6875 32.9586 19.6875 30C19.6875 27.0414 17.5888 24.6429 15 24.6429ZM15 37.5C12.4112 37.5 10.3125 39.8985 10.3125 42.8571C10.3125 45.8158 12.4112 48.2143 15 48.2143C17.5888 48.2143 19.6875 45.8158 19.6875 42.8571C19.6875 39.8985 17.5888 37.5 15 37.5ZM48.75 19.2857V15C48.75 14.1125 48.1203 13.3929 47.3438 13.3929H23.9062C23.1296 13.3929 22.5 14.1125 22.5 15V19.2857C22.5 20.1733 23.1296 20.8929 23.9062 20.8929H47.3438C48.1203 20.8929 48.75 20.1733 48.75 19.2857ZM48.75 32.1429V27.8571C48.75 26.9696 48.1203 26.25 47.3438 26.25H23.9062C23.1296 26.25 22.5 26.9696 22.5 27.8571V32.1429C22.5 33.0304 23.1296 33.75 23.9062 33.75H47.3438C48.1203 33.75 48.75 33.0304 48.75 32.1429ZM48.75 45V40.7143C48.75 39.8267 48.1203 39.1071 47.3438 39.1071H23.9062C23.1296 39.1071 22.5 39.8267 22.5 40.7143V45C22.5 45.8875 23.1296 46.6071 23.9062 46.6071H47.3438C48.1203 46.6071 48.75 45.8875 48.75 45Z" fill="black"/>
</svg>
