<svg width="60" height="60" viewBox="0 0 60 60" fill="none" xmlns="http://www.w3.org/2000/svg">
<path d="M24.2781 0C17.2398 0 11.592 4.84565 11.592 14.1066C11.592 20.1544 13.9948 26.3143 17.6434 30.1099C19.0665 33.9055 16.5003 35.3181 15.9684 35.5192C8.60359 38.2273 0 43.1384 0 48.0168V49.841C0 56.4897 12.6301 58.0262 24.3481 58.0262C26.9021 58.0219 29.4551 57.9252 32.0022 57.7362C28.8128 54.3615 27.0389 49.8873 27.0472 45.2385C27.0472 41.05 28.4702 37.2123 30.8357 34.13C30.4858 33.3068 30.3458 32.0089 30.9827 30.0374C34.6103 26.2371 36.9618 20.131 36.9618 14.1043C36.9618 4.84565 31.307 0.00233864 24.2757 0.00233864L24.2781 0ZM45.2738 30.4747C41.3682 30.4747 37.6225 32.0301 34.8608 34.7986C32.0991 37.5671 30.5476 41.3221 30.5476 45.2374C30.5476 49.1527 32.0991 52.9076 34.8608 55.6761C37.6225 58.4447 41.3682 60 45.2738 60C49.1794 60 52.9251 58.4447 55.6868 55.6761C58.4485 52.9076 60 49.1527 60 45.2374C60 41.3221 58.4485 37.5671 55.6868 34.7986C52.9251 32.0301 49.1794 30.4747 45.2738 30.4747ZM43.2326 37.0533H47.3151V43.1197H53.3665V47.3573H47.3151V53.4238H43.2326V47.3573H37.1088V43.1197H43.2326V37.0533Z" fill="black"/>
</svg>
