<svg width="60" height="60" viewBox="0 0 60 60" fill="none" xmlns="http://www.w3.org/2000/svg">
<path d="M59.2579 25.4402L52.5513 23.4402C52.0877 21.8228 51.45 20.2604 50.6495 18.7802L53.9327 12.6402C54.0559 12.4085 54.101 12.1432 54.0613 11.8838C54.0217 11.6244 53.8993 11.3847 53.7125 11.2002L48.9278 6.40027C48.7432 6.21361 48.5032 6.0914 48.2436 6.05177C47.9839 6.01214 47.7184 6.0572 47.4864 6.18027L41.3804 9.44026C39.8842 8.60158 38.2997 7.93084 36.6558 7.44027L34.6539 0.820302C34.5692 0.576336 34.4092 0.365502 34.1969 0.218149C33.9847 0.0707953 33.7311 -0.00547846 33.4727 0.000306336H26.7061C26.4461 0.00151548 26.1933 0.085575 25.9845 0.240251C25.7757 0.394928 25.6217 0.612149 25.545 0.860302L23.543 7.46027C21.8854 7.94822 20.2874 8.61902 18.7783 9.46026L12.7725 6.22027C12.5405 6.0972 12.275 6.05213 12.0153 6.09177C11.7556 6.1314 11.5157 6.25361 11.3311 6.44027L6.46632 11.1803C6.27947 11.3647 6.15714 11.6044 6.11747 11.8638C6.0778 12.1232 6.12291 12.3885 6.2461 12.6202L9.48927 18.6202C8.64856 20.1214 7.97714 21.7111 7.48732 23.3602L0.860841 25.3602C0.612445 25.4368 0.39501 25.5906 0.240181 25.7993C0.0853525 26.0079 0.00121033 26.2605 0 26.5202V33.2801C0.00121033 33.5398 0.0853525 33.7924 0.240181 34.001C0.39501 34.2097 0.612445 34.3635 0.860841 34.4401L7.52736 36.4401C8.02253 38.0617 8.69385 39.6244 9.52931 41.1001L6.2461 47.3801C6.12291 47.6118 6.0778 47.8771 6.11747 48.1365C6.15714 48.3959 6.27947 48.6356 6.46632 48.8201L11.251 53.6C11.4356 53.7867 11.6756 53.9089 11.9352 53.9485C12.1949 53.9882 12.4604 53.9431 12.6924 53.82L18.8784 50.5201C20.3418 51.3089 21.8854 51.9391 23.4829 52.4L25.4849 59.14C25.5616 59.3882 25.7156 59.6054 25.9244 59.7601C26.1333 59.9147 26.3861 59.9988 26.646 60H33.4127C33.6726 59.9988 33.9254 59.9147 34.1343 59.7601C34.3431 59.6054 34.4971 59.3882 34.5738 59.14L36.5757 52.38C38.1596 51.9168 39.6897 51.2866 41.1402 50.5L47.3663 53.82C47.5983 53.9431 47.8638 53.9882 48.1235 53.9485C48.3831 53.9089 48.6231 53.7867 48.8077 53.6L53.5924 48.8201C53.7792 48.6356 53.9016 48.3959 53.9412 48.1365C53.9809 47.8771 53.9358 47.6118 53.8126 47.3801L50.4893 41.1801C51.2848 39.7255 51.9224 38.1901 52.3912 36.6001L59.1378 34.6001C59.3862 34.5235 59.6036 34.3697 59.7584 34.161C59.9133 33.9524 59.9974 33.6998 59.9986 33.4401V26.6202C60.0104 26.3715 59.9458 26.1251 59.8134 25.9142C59.681 25.7033 59.4871 25.5379 59.2579 25.4402ZM30.0894 41.0001C27.9117 41.0001 25.7829 40.355 23.9722 39.1463C22.1614 37.9376 20.7502 36.2196 19.9168 34.2097C19.0834 32.1997 18.8654 29.988 19.2902 27.8542C19.7151 25.7204 20.7637 23.7604 22.3036 22.222C23.8435 20.6836 25.8054 19.636 27.9413 19.2116C30.0772 18.7871 32.2911 19.005 34.303 19.8375C36.315 20.6701 38.0346 22.08 39.2445 23.8889C40.4544 25.6978 41.1002 27.8246 41.1002 30.0002C41.1002 32.9175 39.9401 35.7154 37.8752 37.7783C35.8103 39.8412 33.0096 41.0001 30.0894 41.0001Z" fill="black"/>
</svg>
